<svg xmlns="http://www.w3.org/2000/svg" version="1.1" xmlns:xlink="http://www.w3.org/1999/xlink" width="2000" height="343" viewBox="0 0 2000 343"><svg xml:space="preserve" width="2000" height="343" data-version="2" data-id="lg_ea9wHGbLcFfX6nEnhP" viewBox="0 0 762 343" x="0" y="0"><rect width="100%" height="100%" fill="transparent"></rect><path fill="#f7f0e8" d="m363.093 173.469-7.586 46.194.17.17-.34.34-14.322 86.443 92.5 32.154-13.472-143.733zm-1.359 41.495-3.396-5.717c3.057-1.869 6.227-2.888 9.454-3.227l.679 6.736c-2.208.17-4.36.85-6.737 2.208m16.87.17c-1.189-.68-2.208-1.189-3.227-1.528l2.378-6.228c1.359.51 2.887 1.19 4.19 2.038 1.697.85 3.056 2.378 4.188 4.36l-5.717 3.566c-.793-1.415-1.302-2.095-1.812-2.208m4.699 9.227 6.397-2.038c.849 2.888 1.698 5.888 2.207 8.605l-6.566 1.529c-.34-2.378-1.19-5.378-2.038-8.096m4.189 16.53 6.567-1.528c.849 3.227 1.528 5.888 2.038 8.265l-6.567 1.868c-.51-2.547-1.359-5.264-2.038-8.604m4.755 17.04 6.397-2.208c1.019 2.887 2.038 5.378 3.057 7.756l-6.057 2.887a84.35 84.35 0 0 1-3.397-8.435m13.983 23.38c-2.208-2.038-4.36-4.359-6.227-7.076l5.547-3.85c1.529 2.378 3.397 4.19 5.039 5.888zm17.322 7.756c-3.226-.34-6.397-1.19-9.284-2.548l2.718-6.227c2.207 1.02 4.698 1.698 7.246 2.038zm38.439-127.373-37.25 33.343 8.095 87.293c2.378-.34 4.7-.68 7.247-1.528l1.698 6.566c-2.887.85-5.718 1.359-8.435 1.699l4.699 49.703 88.82-31.192zm-11.436 122.844-2.547-6.227c2.547-1.02 5.038-2.208 7.586-3.397l3.057 6.057a172.382 172.382 0 0 1-8.096 3.567m12.455-13.643 3.566-2.038 3.566 5.717c-1.188.68-2.547 1.529-3.68 2.208zm23.436 11.095c-.34-.17-.51-.34-.68-.51l-6.736-8.264c0 .34-.17.51-.17.68l-3.566 9.283c-.17.34-.34.51-.51.85-.17.17-.509.339-.849.509l-5.717 1.019 6.227-14.832-10.303-11.265 6.057-1.02h.85c.169 0 .339.17.509.51l6.736 7.926c0-.17 0-.34.17-.51 0-.17.17-.34.17-.51l3.227-8.604c.17-.51.51-.85 1.019-1.02l5.887-1.018-6.057 13.813 10.643 12.284-6.058 1.02c-.17-.17-.51-.17-.849-.34m-141.581-60.12c2.037-2.717 4.019-4.868 6.057-6.736l.68.68 6.906-42.119-47.496 23.947-32.834 73.65c.51.339 1.189.678 1.698 1.018l-3.057 6.057c-.51-.17-1.019-.51-1.528-.849l-24.795 55.421 85.934-26.097 13.303-80.895zm-52.535 59.95c-2.207 0-4.359-.17-6.397-.679l1.36-6.567c2.547.51 5.037.68 7.585.34l.68 6.737c-1.02.17-2.209.17-3.228.17m12.455-2.66-2.718-6.227a38.422 38.422 0 0 0 6.737-4.02l4.02 5.378c-2.661 1.982-5.322 3.68-8.04 4.869m14.831-10.982-4.868-4.7c1.868-1.867 3.566-3.849 5.378-6.226l5.208 4.189c-1.868 2.547-3.85 4.699-5.718 6.737m11.096-13.813-5.548-3.85c1.359-2.038 2.887-4.189 4.869-7.076l5.547 3.68c-1.811 2.887-3.34 5.038-4.868 7.246m4.076-18.172c1.698-2.548 3.227-4.869 4.868-7.246l5.548 3.85c-1.528 2.377-3.227 4.698-4.698 7.076zM103.205 21.083v24.11h-32.73v99.44h-30.1v-99.44H7.645v-24.11Z"></path><rect width="95.56" height="123.55" x="-47.78" y="-61.77" fill="none" rx="0" ry="0" transform="translate(55.92 83.36)"></rect><path fill="#f7f0e8" d="M148.445 62.793q5.28-8.09 13.2-12.76 7.92-4.66 17.6-4.66v31.86h-8.28q-11.26 0-16.89 4.84-5.63 4.84-5.63 16.98v45.58h-30.1v-98.2h30.1z"></path><rect width="60.9" height="99.26" x="-30.45" y="-49.63" fill="none" rx="0" ry="0" transform="translate(149.3 95.5)"></rect><path fill="#f7f0e8" d="M208.805 36.223q-7.92 0-12.93-4.67-5.02-4.66-5.02-11.52 0-7.04 5.02-11.71 5.01-4.66 12.93-4.66 7.75 0 12.76 4.66 5.02 4.67 5.02 11.71 0 6.86-5.02 11.52-5.01 4.67-12.76 4.67m14.96 10.21v98.2h-30.09v-98.2Z"></path><rect width="35.73" height="140.97" x="-17.86" y="-70.48" fill="none" rx="0" ry="0" transform="translate(209.22 74.65)"></rect><path fill="#f7f0e8" d="M275.685 60.333q4.4-6.86 12.15-11.09 7.74-4.22 18.13-4.22 12.14 0 22 6.16 9.85 6.16 15.57 17.6 5.72 11.44 5.72 26.57 0 15.14-5.72 26.67-5.72 11.53-15.57 17.77-9.86 6.25-22 6.25-10.21 0-18.04-4.22-7.84-4.23-12.24-10.91v60.54h-30.09V46.433h30.09zm42.95 35.02q0-11.26-6.25-17.68-6.25-6.43-15.4-6.43-8.98 0-15.22 6.51-6.25 6.52-6.25 17.78 0 11.26 6.25 17.78 6.24 6.51 15.22 6.51t15.31-6.6q6.34-6.6 6.34-17.87"></path><rect width="103.66" height="146.43" x="-51.83" y="-73.22" fill="none" rx="0" ry="0" transform="translate(297.93 118.74)"></rect><path fill="#f7f0e8" d="M509.415 21.083v123.55h-30.09v-50.86h-46.82v50.86h-30.1V21.083h30.1v48.4h46.82v-48.4Z"></path><rect width="107.01" height="123.55" x="-53.51" y="-61.77" fill="none" rx="0" ry="0" transform="translate(456.41 83.36)"></rect><path fill="#f7f0e8" d="M628.045 46.433v98.2h-30.1v-13.37q-4.58 6.51-12.41 10.47-7.83 3.96-17.33 3.96-11.27 0-19.89-5.02-8.63-5.01-13.38-14.52-4.75-9.5-4.75-22.35v-57.37h29.92v53.32q0 9.86 5.1 15.32 5.11 5.45 13.73 5.45 8.8 0 13.91-5.45 5.1-5.46 5.1-15.32v-53.32Z"></path><rect width="97.86" height="99.26" x="-48.93" y="-49.63" fill="none" rx="0" ry="0" transform="translate(579.62 96.56)"></rect><path fill="#f7f0e8" d="M679.785 60.333q4.22-6.86 12.14-11.09 7.92-4.22 18.13-4.22 12.15 0 22 6.16 9.86 6.16 15.58 17.6 5.72 11.44 5.72 26.57 0 15.14-5.72 26.67-5.72 11.53-15.58 17.77-9.85 6.25-22 6.25-10.38 0-18.13-4.13-7.74-4.14-12.14-11v13.72h-30.1V14.393h30.1zm42.94 35.02q0-11.26-6.24-17.68-6.25-6.43-15.4-6.43-8.98 0-15.23 6.51-6.25 6.52-6.25 17.78 0 11.26 6.25 17.78 6.25 6.51 15.23 6.51 8.97 0 15.31-6.6 6.33-6.6 6.33-17.87"></path><rect width="103.67" height="131.65" x="-51.84" y="-65.83" fill="none" rx="0" ry="0" transform="translate(702.02 80.72)"></rect></svg></svg>